REM DIRINDEX 1\2,1\3
REM DIRNAME folder01,folder02,folder03
TITLE ""
FILE "ScrambleS_3Part2_Theme134.mp3" MP3
  TRACK 01 AUDIO
    TITLE "3:cjc080_0698"
    INDEX 01 00:00:00
  TRACK 02 AUDIO
    TITLE "0:"
    INDEX 01 00:01:71
  TRACK 03 AUDIO
    TITLE "2:cjc080_0699"
    INDEX 01 00:03:17
  TRACK 04 AUDIO
    TITLE "0:"
    INDEX 01 00:06:06
  TRACK 05 AUDIO
    TITLE "2:cjc080_0700"
    INDEX 01 00:07:31
  TRACK 06 AUDIO
    TITLE "0:"
    INDEX 01 00:09:59
